<svg xmlns="http://www.w3.org/2000/svg" viewBox="0 0 693.77 229.48"><defs><style>.cls-1,.cls-2,.cls-3,.cls-4,.cls-5{fill:#fff;}.cls-1,.cls-7{opacity:0.9;}.cls-2{opacity:0.6;}.cls-4,.cls-6{opacity:0.75;}.cls-5{opacity:0.8;}</style></defs><title>アセット 9</title><g id="レイヤー_2" data-name="レイヤー 2"><g id="レイヤー_1-2" data-name="レイヤー 1"><rect class="cls-1" x="643.92" y="184.68" width="7.54" height="25.51" rx="0.8" ry="0.8"/><rect class="cls-2" x="607.73" y="184.68" width="7.54" height="35.43" rx="0.61" ry="0.61"/><rect class="cls-3" x="625.82" y="184.68" width="7.54" height="39.69" rx="0.67" ry="0.67"/><rect class="cls-4" x="662.01" y="184.68" width="7.54" height="42.52" rx="0.75" ry="0.75"/><rect class="cls-5" x="680.11" y="184.68" width="7.54" height="34.02" rx="0.55" ry="0.55"/><path class="cls-3" d="M273.85,165.75h-7.54V95.83h-8.48v-7h8.48V52.29c0-8.67,1.31-14.51,3.77-18.09a19.5,19.5,0,0,1,16.39-8.1,18.16,18.16,0,0,1,6.79,1.13v7a22.55,22.55,0,0,0-6-.94c-9.62,0-13.38,5.84-13.38,20.54V88.86h19.41v7H273.85Z"/><path class="cls-3" d="M328.13,165.75h-7.54V28.36h7.54Z"/><path class="cls-3" d="M364.5,134.66c0,8.85.76,13.38,2.45,17,2.83,5.46,10,9.23,17.72,9.23,7.54,0,14.7-3.77,17.53-9.23,1.69-3.58,2.45-8.11,2.45-17V88.86h7.54V137.3c0,10.74-1.32,16-5.66,21.1-4.9,5.85-13,9.43-21.86,9.43-9.05,0-17.15-3.58-22.05-9.43C358.28,153.32,357,148,357,137.3V88.86h7.54Z"/><path class="cls-3" d="M502.66,107c-9.05-9.24-16.78-12.82-27-12.82-17.9,0-31.85,14.7-31.85,33.55,0,18.47,14.14,33.17,31.85,33.17,10.56,0,19.6-4.52,27.9-13.94v10.17c-8.86,7.36-17.53,10.75-27.9,10.75-22.42,0-39.58-17.34-39.58-39.77,0-23.37,17.16-40.9,39.77-40.9,10.18,0,17.91,2.83,26.77,9.8Z"/><path class="cls-3" d="M534.32,165.75h-7.54V95.83H518.3v-7h8.48V61.34h7.54V88.86h13.57v7H534.32Z"/><path class="cls-3" d="M572,134.66c0,8.85.76,13.38,2.45,17,2.83,5.46,10,9.23,17.72,9.23,7.54,0,14.7-3.77,17.53-9.23,1.7-3.58,2.45-8.11,2.45-17V88.86h7.54V137.3c0,10.74-1.32,16-5.66,21.1-4.9,5.85-13,9.43-21.86,9.43-9,0-17.15-3.58-22-9.43-4.33-5.08-5.66-10.36-5.66-21.1V88.86H572Z"/><path class="cls-3" d="M682.84,103c-3.21-5.84-7.54-8.86-13.2-8.86-7.35,0-13.38,5.66-13.38,12.44,0,6,3.58,9.24,15.08,13.57,9.8,3.58,11.31,4.34,14.89,7,4.9,3.77,7.54,9.42,7.54,16.39,0,14.14-10.37,24.32-25.07,24.32-12.81,0-22.43-7.35-26.38-20.36l7.35-2.26c3.58,10.56,10,15.64,19,15.64A16.9,16.9,0,0,0,686,143.7c0-7.72-3.58-11.49-14.89-15.64-16.77-6-22.62-11.5-22.62-21.11,0-10.93,9.24-19.79,20.74-19.79,8.67,0,15.64,4.34,20,12.44Z"/><g class="cls-6"><path class="cls-3" d="M378.49,17l-6.19,8.84a9.14,9.14,0,0,1,3.75-.75,9.84,9.84,0,1,1-10.12,9.77,10.25,10.25,0,0,1,1.82-5.73l9.31-13.19Zm-10.7,17.9a8.13,8.13,0,1,0,8.13-8.09A8.15,8.15,0,0,0,367.79,34.85Z"/><path class="cls-3" d="M390,17.91V16.23h20.35l-20.05,28.4L389,43.58l18.16-25.67Z"/><path class="cls-3" d="M415.37,44.34h-1.68V28.7h-1.9V27.14h1.9V21h1.68v6.15h3V28.7h-3Z"/><path class="cls-3" d="M423.38,13.62V29.84a5.7,5.7,0,0,1,5.27-3.08,5.57,5.57,0,0,1,4.76,2.41,8.17,8.17,0,0,1,.84,4.34V44.34h-1.69V33.51a6.35,6.35,0,0,0-.63-3.5,3.94,3.94,0,0,0-3.49-1.69,4.53,4.53,0,0,0-4.13,2.36c-.72,1.18-.93,2.36-.93,4.72v8.94h-1.69V13.62Z"/><path class="cls-3" d="M457.39,44.34h-1.81V17.91h-7.21V16.23h16.35v1.68h-7.33Z"/><path class="cls-3" d="M476,30.3a3.3,3.3,0,0,0-3-2,2.91,2.91,0,0,0-3,2.78c0,1.35.8,2.07,3.37,3a10.52,10.52,0,0,1,3.33,1.56,4.42,4.42,0,0,1,1.68,3.66,5.32,5.32,0,0,1-5.6,5.44,5.93,5.93,0,0,1-5.9-4.55l1.64-.51c.8,2.36,2.23,3.5,4.26,3.5a3.77,3.77,0,0,0,3.87-3.84c0-1.72-.8-2.57-3.32-3.49-3.75-1.35-5.06-2.57-5.06-4.72a4.52,4.52,0,0,1,4.63-4.43,4.89,4.89,0,0,1,4.47,2.78Z"/><path class="cls-3" d="M484.41,37.38a8.65,8.65,0,0,0,.55,3.79,4.78,4.78,0,0,0,7.88,0,8.84,8.84,0,0,0,.54-3.79V27.14h1.69V38c0,2.4-.3,3.58-1.26,4.72a6.77,6.77,0,0,1-9.82,0c-1-1.14-1.27-2.32-1.27-4.72V27.14h1.69Z"/><path class="cls-3" d="M502.79,34.43l7-7.29H512l-7.2,7.46,9.65,9.74h-2.32l-8.47-8.52-.88.89v7.63H501.1V13.62h1.69Z"/><path class="cls-3" d="M519.47,37.38a8.65,8.65,0,0,0,.55,3.79,4.47,4.47,0,0,0,4,2.07,4.42,4.42,0,0,0,3.92-2.07,8.65,8.65,0,0,0,.55-3.79V27.14h1.69V38c0,2.4-.3,3.58-1.27,4.72a6.77,6.77,0,0,1-9.82,0c-1-1.14-1.26-2.32-1.26-4.72V27.14h1.68Z"/><path class="cls-3" d="M537.85,34.43l7-7.29h2.19l-7.21,7.46,9.65,9.74h-2.31l-8.47-8.52-.89.89v7.63h-1.68V13.62h1.68Z"/><path class="cls-3" d="M569.75,35.78a9,9,0,1,1-18-.17,9,9,0,0,1,9-8.85A8.89,8.89,0,0,1,569.75,35.78Zm-16.26-.13a7.27,7.27,0,1,0,7.2-7.33A7.29,7.29,0,0,0,553.49,35.65Z"/><path class="cls-3" d="M576.33,27.14v2.15a4.77,4.77,0,0,1,4.43-2.53,4.94,4.94,0,0,1,4.8,3.12,5.23,5.23,0,0,1,5.06-3.12,5.42,5.42,0,0,1,4.25,1.9c.8,1,1.06,2.11,1.06,4.42V44.34h-1.69V32.87c0-1.81-.17-2.48-.76-3.28a3.72,3.72,0,0,0-3-1.27c-2.82,0-4.34,2-4.34,5.65V44.34h-1.68V33.29a5.57,5.57,0,0,0-.64-3.11,3.5,3.5,0,0,0-3.16-1.86,4.16,4.16,0,0,0-3.66,2.24,8.87,8.87,0,0,0-.72,3.83v10h-1.68V27.14Z"/><path class="cls-3" d="M617.67,27.14v17.2H616V41.26a7.7,7.7,0,0,1-6.7,3.54c-4.89,0-8.43-3.84-8.43-9.15s3.46-8.89,8.39-8.89A7.89,7.89,0,0,1,616,30.13v-3Zm-15.08,8.43c0,4.43,2.86,7.67,6.74,7.67s6.78-3.16,6.78-7.67A6.7,6.7,0,0,0,614,30.13a7.35,7.35,0,0,0-4.64-1.81C605.54,28.32,602.59,31.48,602.59,35.57Z"/><path class="cls-3" d="M636.81,17.91v10.2h9.27V29.8h-9.27V44.34H635V16.23h11.34v1.68Z"/><path class="cls-3" d="M652.07,36a7.34,7.34,0,0,0,.93,3.88,6.58,6.58,0,0,0,10.11,1.77,9.24,9.24,0,0,0,1.73-2.32l1.43.84a8.29,8.29,0,0,1-7.63,4.68c-4.88,0-8.42-3.79-8.42-9s3.58-9.06,8.38-9.06,8.14,3.67,8.22,9.19Zm12.81-1.6c-.63-3.63-3.16-6-6.32-6a6.64,6.64,0,0,0-6.36,6Z"/><path class="cls-3" d="M679.38,30.3a3.29,3.29,0,0,0-3-2,2.91,2.91,0,0,0-3,2.78c0,1.35.8,2.07,3.37,3a10.52,10.52,0,0,1,3.33,1.56,4.42,4.42,0,0,1,1.68,3.66,5.31,5.31,0,0,1-5.6,5.44,5.94,5.94,0,0,1-5.9-4.55l1.64-.51c.8,2.36,2.24,3.5,4.26,3.5a3.78,3.78,0,0,0,3.88-3.84c0-1.72-.8-2.57-3.33-3.49-3.75-1.35-5.06-2.57-5.06-4.72a4.53,4.53,0,0,1,4.64-4.43,4.89,4.89,0,0,1,4.46,2.78Z"/><path class="cls-3" d="M689,43.07a1.54,1.54,0,1,1-3.08,0,1.55,1.55,0,0,1,1.56-1.52A1.52,1.52,0,0,1,689,43.07Z"/></g><g class="cls-7"><path class="cls-3" d="M280.05,211.22V214H263l9.6-11.15c3.54-4.09,4.61-5.92,4.61-7.94a5.34,5.34,0,0,0-9.73-2.78,5.94,5.94,0,0,0-.87,3.13h-3a8.8,8.8,0,0,1,1.35-4.56,8.12,8.12,0,0,1,6.87-3.58,8,8,0,0,1,8.26,7.86c0,2.9-1,4.73-5.72,10.09l-5.4,6.19Z"/><path class="cls-3" d="M303.63,200.66a17.35,17.35,0,0,1-2.62,9.69,7.82,7.82,0,0,1-13.81-.2,17.09,17.09,0,0,1-2.5-9.53c0-7.58,4.16-13.54,9.48-13.54S303.63,193,303.63,200.66Zm-16,0c0,6.35,2.78,11,6.59,11,3.66,0,6.56-4.84,6.56-10.92,0-6.23-2.86-11-6.6-11S287.59,194.55,287.59,200.66Z"/><path class="cls-3" d="M311,190.22l1.55-2.74h5.79V214h-3V190.22Z"/><path class="cls-3" d="M330.91,194.35a7.43,7.43,0,0,1,14.85,0,6.83,6.83,0,0,1-3.33,5.84,6.87,6.87,0,0,1,3.85,6.39,7.68,7.68,0,0,1-7.94,7.82c-4.65,0-8.1-3.3-8.1-7.74a6.76,6.76,0,0,1,3.93-6.47A6.66,6.66,0,0,1,330.91,194.35Zm2.23,12.15a5.12,5.12,0,1,0,5.12-5A5.09,5.09,0,0,0,333.14,206.5Zm.59-12.19a4.61,4.61,0,1,0,4.61-4.53A4.6,4.6,0,0,0,333.73,194.31Z"/><path class="cls-3" d="M355.53,212.37a2,2,0,1,1-2-1.94A2,2,0,0,1,355.53,212.37Z"/><path class="cls-3" d="M364,190.22l1.54-2.74h5.8V214h-3V190.22Z"/><path class="cls-3" d="M385.9,190.22l1.55-2.74h5.8V214h-3V190.22Z"/><path class="cls-3" d="M408.46,212.37a2,2,0,1,1-2-1.94A2,2,0,0,1,408.46,212.37Z"/><path class="cls-3" d="M431.44,200.66a17.35,17.35,0,0,1-2.62,9.69,7.82,7.82,0,0,1-13.81-.2,17.09,17.09,0,0,1-2.5-9.53c0-7.58,4.17-13.54,9.49-13.54S431.44,193,431.44,200.66Zm-16,0c0,6.35,2.77,11,6.59,11,3.65,0,6.55-4.84,6.55-10.92,0-6.23-2.86-11-6.6-11S415.41,194.55,415.41,200.66Z"/><path class="cls-3" d="M451.77,211.22V214H434.7l9.61-11.15c3.53-4.09,4.61-5.92,4.61-7.94a5.34,5.34,0,0,0-9.73-2.78,5.84,5.84,0,0,0-.88,3.13h-3c.24-2.26.51-3.33,1.35-4.56a8.12,8.12,0,0,1,6.86-3.58,8,8,0,0,1,8.26,7.86c0,2.9-1,4.73-5.71,10.09l-5.4,6.19Z"/><path class="cls-3" d="M457.55,201.51v4.81h4.37v.79h-4.37V214h-.85V200.72H462v.79Z"/><path class="cls-3" d="M471.31,214h-1.05L466,207.71h-.4V214h-.85V200.72h1.86a4.36,4.36,0,0,1,2.8.68,3.64,3.64,0,0,1-.33,5.87,5.05,5.05,0,0,1-2.11.44Zm-4.43-7c1.91,0,3-1,3-2.7a2.58,2.58,0,0,0-1.17-2.31,4.08,4.08,0,0,0-2-.4h-1.09v5.41Z"/><path class="cls-3" d="M474.88,214H474V200.72h.85Z"/><path class="cls-3" d="M493.78,204.23v2.55H486.6v-2.55Z"/><path class="cls-3" d="M524.16,200.66a17.43,17.43,0,0,1-2.62,9.69,7.83,7.83,0,0,1-13.82-.2,17.09,17.09,0,0,1-2.5-9.53c0-7.58,4.17-13.54,9.49-13.54S524.16,193,524.16,200.66Zm-16,0c0,6.35,2.78,11,6.59,11,3.65,0,6.55-4.84,6.55-10.92,0-6.23-2.86-11-6.59-11S508.12,194.55,508.12,200.66Z"/><path class="cls-3" d="M546,207v2.66H542.7V214h-2.94v-4.33H526.18l16.52-23.58V207ZM539.76,195,531.34,207h8.42Z"/><path class="cls-3" d="M555.42,202.94a2.82,2.82,0,0,0-2.6-1.58,2.45,2.45,0,0,0-2.48,2.5c0,1.07.54,1.65,2.35,2.52a21.55,21.55,0,0,1,2.64,1.37,2.93,2.93,0,0,1,1.39,2.54,4.13,4.13,0,0,1-8,1.05l.73-.36a6.16,6.16,0,0,0,.74,1.27,3.13,3.13,0,0,0,2.44,1.12,3.18,3.18,0,0,0,3.23-3.08,2.33,2.33,0,0,0-1.29-2c-.44-.23-.49-.27-2.46-1.25s-2.62-1.72-2.62-3.15a3.24,3.24,0,0,1,3.39-3.3,3.61,3.61,0,0,1,3.22,1.89Z"/><path class="cls-3" d="M560.43,209c0,1.63.1,2.26.48,2.84a4,4,0,0,0,6.33,0c.37-.58.47-1.21.47-2.84v-8.28h.86v8.52c0,1.74-.14,2.38-.7,3.13a4.89,4.89,0,0,1-7.6,0c-.56-.75-.69-1.39-.69-3.13v-8.52h.85Z"/><path class="cls-3" d="M572.14,200.58l11.12,11.63V200.72h.85V214.3L573,202.67V214h-.86Z"/></g><path class="cls-3" d="M75.44,144.29V78.14h0l-11,8.42L39.14,67.31v99.44L64.4,185.61l25.25-18.86V156.33l-12.76-9.2A3.49,3.49,0,0,1,75.44,144.29Z"/><path class="cls-3" d="M165.09,86.57l-11-8.42h0v66.14a3.53,3.53,0,0,1-1.44,2.83h0l-12.76,9.2v10.41l25.25,18.86,25.25-18.86V67.32Z"/><polygon class="cls-3" points="150.14 75.17 150.14 73.2 150.14 72.71 150.14 72.22 150.14 70.25 150.14 43.87 114.74 68.59 79.35 43.87 79.35 70.25 79.35 72.22 79.35 72.71 79.35 73.2 79.35 75.16 79.35 144.09 89.65 151.51 89.65 151.51 91.61 152.92 93.56 154.33 93.56 154.33 114.74 169.59 135.93 154.32 135.93 154.32 137.24 153.38 137.88 152.92 138.27 152.63 138.27 152.63 138.68 152.34 150.14 144.09 150.14 75.17"/><path class="cls-2" d="M196.27,48.87c-1.1-1.42-2.33-2.72-3.48-4.09s-2.46-2.61-3.69-3.91l0-.46,6.6-6.6.47.06c1.34,1.43,2.73,2.82,4,4.28s2.61,2.93,3.81,4.48v.48L196.71,49Z"/><path class="cls-1" d="M180.61,196.27c1.42-1.1,2.72-2.33,4.09-3.48s2.6-2.46,3.91-3.69l.46,0,6.6,6.6-.07.47c-1.42,1.34-2.81,2.73-4.27,4s-2.93,2.61-4.48,3.81h-.48l-5.85-7.27Z"/><path class="cls-2" d="M157.27,210.55c1.63-.73,3.27-1.46,4.85-2.31l2.39-1.22c.78-.43,1.55-.89,2.33-1.33l.45.08,4.67,8.08-.18.44c-.85.49-1.69,1-2.56,1.46l-2.61,1.34c-1.73.92-3.52,1.72-5.31,2.52l-.47-.11L157.07,211Z"/><path class="cls-5" d="M131,218.3c1.76-.33,3.52-.61,5.28-1s3.49-.77,5.22-1.23l.41.18,2.41,9c-.11.15-.17.24-.29.39-1.89.51-3.81.9-5.72,1.35s-3.86.71-5.78,1.06l-.42-.22-1.41-9.23Z"/><path class="cls-4" d="M103.66,219c1.79.17,3.57.28,5.36.43s3.58.09,5.37.15l.35.3v9.33l-.38.29c-2-.06-3.92-.08-5.87-.17s-3.91-.27-5.86-.46l-.35-.34,1-9.28Z"/><path class="cls-3" d="M77.07,212.56a101.32,101.32,0,0,0,10.2,3.35l.26.37-2.41,9-.44.18a109,109,0,0,1-11.18-3.66l-.24-.41,3.38-8.7Z"/><path class="cls-1" d="M53.05,199.47c1.47,1,2.89,2.12,4.42,3.05s3,2,4.57,2.82l.15.43-4.67,8.08-.48.06c-1.72-.94-3.35-2-5-3.09s-3.23-2.21-4.84-3.33l-.13-.46,5.52-7.52Z"/><path class="cls-5" d="M33.21,180.61c1.1,1.42,2.33,2.72,3.48,4.09s2.46,2.6,3.69,3.91l0,.46-6.6,6.6-.47-.07c-1.34-1.42-2.73-2.81-4-4.27s-2.61-2.93-3.81-4.48v-.48l7.28-5.85Z"/><path class="cls-2" d="M18.93,157.27c.73,1.63,1.46,3.27,2.31,4.85l1.22,2.39c.43.78.89,1.55,1.33,2.33l-.08.45L15.63,172l-.44-.18c-.49-.85-1-1.69-1.46-2.56l-1.34-2.61c-.92-1.73-1.72-3.52-2.53-5.31l.12-.47,8.54-3.76Z"/><path class="cls-4" d="M11.18,131c.33,1.76.61,3.53,1,5.28s.77,3.49,1.23,5.22l-.19.41-9,2.41-.39-.29c-.51-1.89-.9-3.81-1.36-5.72s-.7-3.86-1.05-5.78l.22-.42,9.23-1.41Z"/><path class="cls-1" d="M10.5,103.66c-.17,1.79-.28,3.57-.43,5.36s-.09,3.58-.15,5.37l-.3.35H.29L0,114.36c.06-2,.08-3.92.17-5.87s.27-3.91.46-5.86l.34-.35,9.28,1Z"/><path class="cls-2" d="M16.91,77.07a103.86,103.86,0,0,0-3.34,10.2l-.38.26-9-2.41L4,84.68A109,109,0,0,1,7.66,73.5l.41-.24,8.7,3.38C16.82,76.81,16.86,76.9,16.91,77.07Z"/><path class="cls-5" d="M30,53.05c-1,1.47-2.12,2.89-3.05,4.42s-2,3-2.82,4.57l-.43.15-8.08-4.67L15.57,57c.94-1.72,2-3.35,3.08-5S20.87,48.81,22,47.2l.46-.13L30,52.59Z"/><path class="cls-4" d="M48.87,33.21c-1.42,1.1-2.72,2.33-4.09,3.48s-2.61,2.46-3.91,3.69l-.46,0-6.6-6.6.06-.47c1.43-1.34,2.82-2.73,4.28-4s2.93-2.61,4.48-3.81h.48L49,32.77Z"/><path class="cls-2" d="M72.21,18.93c-1.63.73-3.27,1.46-4.85,2.31L65,22.46c-.78.43-1.55.89-2.33,1.33l-.45-.08-4.67-8.08.18-.44c.85-.49,1.69-1,2.55-1.46l2.62-1.34c1.73-.92,3.52-1.72,5.31-2.53l.46.12,3.77,8.54Z"/><path class="cls-5" d="M98.44,11.18c-1.76.33-3.53.61-5.28,1s-3.5.77-5.22,1.23l-.41-.19-2.41-9,.29-.39c1.89-.51,3.81-.9,5.72-1.36s3.86-.7,5.78-1.05l.42.22,1.41,9.23Z"/><path class="cls-3" d="M125.82,10.5c-1.79-.17-3.58-.28-5.36-.43s-3.58-.09-5.37-.15l-.35-.3V.29l.38-.29c2,.06,3.92.08,5.87.17s3.91.27,5.86.46l.35.34-1,9.28Z"/><path class="cls-5" d="M152.41,16.91a103.86,103.86,0,0,0-10.2-3.34l-.26-.38,2.41-9L144.8,4A109.76,109.76,0,0,1,156,7.66l.24.41-3.38,8.7Z"/><path class="cls-4" d="M176.43,30C175,29,173.54,27.89,172,27s-3-2-4.57-2.82l-.15-.43L172,15.63l.48-.06c1.72.94,3.35,2,5,3.08s3.23,2.22,4.84,3.34l.13.46L176.89,30Z"/><path class="cls-5" d="M210.55,72.21c-.73-1.63-1.46-3.27-2.31-4.85L207,65c-.43-.78-.89-1.55-1.33-2.33l.08-.45,8.08-4.67.44.18c.49.85,1,1.69,1.46,2.55l1.34,2.62c.92,1.73,1.72,3.52,2.52,5.31l-.11.46L211,72.41Z"/><path class="cls-2" d="M218.3,98.44c-.33-1.76-.61-3.53-1-5.28s-.77-3.5-1.23-5.22l.18-.41,9-2.41.39.29c.51,1.89.9,3.81,1.35,5.72s.71,3.86,1.06,5.78c-.09.17-.13.26-.22.42l-9.23,1.41Z"/><path class="cls-2" d="M199.47,176.43c1-1.47,2.12-2.89,3.05-4.42s2-3,2.82-4.57l.43-.15,8.08,4.67.06.48c-.94,1.72-2,3.35-3.09,5s-2.21,3.23-3.33,4.84l-.46.13-7.52-5.52C199.49,176.71,199.49,176.61,199.47,176.43Z"/><path class="cls-4" d="M212.56,152.41a101.32,101.32,0,0,0,3.35-10.2l.37-.26,9,2.41.18.44A109.76,109.76,0,0,1,221.82,156l-.41.24-8.7-3.38Z"/><path class="cls-2" d="M219,125.82c.17-1.79.28-3.58.43-5.36s.09-3.58.15-5.37l.3-.35h9.33l.29.38c-.06,2-.08,3.92-.17,5.87s-.27,3.91-.46,5.86l-.34.35-9.28-1Z"/></g></g></svg>
